<!DOCTYPE svg PUBLIC "-//W3C//DTD SVG 20010904//EN" "http://www.w3.org/TR/2001/REC-SVG-20010904/DTD/svg10.dtd">
<svg version="1.0" xmlns="http://www.w3.org/2000/svg" width="868px" height="243px" viewBox="0 0 8680 2430" preserveAspectRatio="xMidYMid meet">
<g id="layer101" fill="#151515" stroke="none">
<path d="M0 1215 l0 -1215 4340 0 4340 0 0 1215 0 1215 -4340 0 -4340 0 0 -1215z"/>
</g>
<g id="layer102" fill="#f8ad07" stroke="none">
<path d="M742 2213 c-21 -8 -43 -61 -36 -88 14 -58 -45 -55 1109 -55 691 0 1083 -4 1125 -11 97 -15 201 -69 274 -142 150 -152 189 -375 98 -567 -37 -77 -139 -177 -229 -223 -57 -30 -74 -44 -79 -65 -29 -135 -109 -299 -192 -398 -78 -93 -160 -157 -267 -209 -141 -69 -194 -80 -380 -80 -155 1 -163 2 -255 33 -121 42 -214 97 -300 178 -88 83 -138 149 -195 256 -44 83 -48 87 -94 103 -68 22 -158 78 -213 133 -27 25 -48 50 -48 54 0 4 77 8 170 8 157 0 172 2 190 20 28 28 26 81 -3 108 -23 22 -26 22 -421 22 l-397 0 -24 -25 c-32 -31 -33 -74 -2 -103 22 -20 33 -22 159 -22 l135 0 37 -55 c74 -112 162 -188 291 -253 56 -28 64 -36 115 -123 235 -399 711 -586 1150 -453 306 93 562 340 660 639 26 77 29 81 86 119 125 83 220 204 272 348 24 66 27 87 27 208 0 121 -3 142 -27 208 -37 104 -83 175 -159 251 -76 76 -147 121 -251 159 l-73 27 -1120 2 c-616 1 -1126 -1 -1133 -4z"/>
<path d="M192 1887 c-28 -30 -29 -80 -2 -107 19 -19 33 -20 355 -20 322 0 336 1 355 20 28 28 26 81 -3 108 -23 22 -28 22 -353 22 l-331 0 -21 -23z"/>
<path d="M1029 1897 c-26 -20 -40 -55 -33 -82 12 -47 37 -55 170 -55 120 0 123 0 143 26 28 35 26 69 -4 99 -23 24 -30 25 -142 25 -77 -1 -124 -5 -134 -13z"/>
<path d="M499 1581 c-29 -23 -31 -81 -4 -111 18 -20 27 -20 547 -20 320 0 536 4 547 10 10 5 24 22 30 39 10 24 10 34 -3 59 -8 16 -23 32 -31 36 -9 3 -252 6 -540 6 -496 0 -524 -1 -546 -19z"/>
<path d="M315 1265 c-30 -30 -32 -64 -4 -99 18 -23 28 -26 80 -26 71 0 99 21 99 75 0 51 -31 75 -97 75 -44 0 -59 -5 -78 -25z"/>
</g>
<g id="layer103" fill="#fcfcfc" stroke="none">
<path d="M3690 2075 l0 -95 349 0 c192 0 356 -3 365 -6 19 -7 22 -94 4 -112 -9 -9 -93 -12 -316 -12 -343 0 -346 0 -382 -75 -17 -35 -20 -62 -20 -184 0 -127 2 -148 20 -176 41 -66 24 -64 504 -67 l436 -3 0 98 0 97 -360 0 -361 0 3 58 3 57 310 5 c420 7 405 -3 405 266 l0 167 -40 39 -41 38 -439 0 -440 0 0 -95z"/>
<path d="M4782 1758 l3 -411 90 1 c50 1 102 1 118 2 l27 0 0 410 0 410 -120 0 -120 0 2 -412z"/>
<path d="M5140 1761 c0 -226 3 -411 8 -414 4 -2 56 -1 116 2 l108 6 147 225 c80 124 153 235 162 248 16 23 19 20 180 -228 90 -138 167 -251 172 -251 4 1 54 1 112 1 l105 0 0 410 0 410 -115 0 -115 0 -2 -192 -3 -193 -127 193 -128 192 -64 0 -64 0 -126 -192 -126 -193 0 193 0 192 -120 0 -120 0 0 -409z"/>
<path d="M6372 1918 l3 -253 345 -5 345 -5 0 -55 0 -55 -347 -3 -348 -2 0 -95 0 -95 428 0 428 0 32 29 c45 42 52 67 52 189 0 88 -3 113 -19 139 l-20 31 35 37 34 36 0 132 c0 145 -8 169 -66 208 -27 18 -55 19 -467 19 l-437 0 2 -252z m712 56 c12 -5 16 -20 16 -60 l0 -54 -245 0 -245 0 0 60 0 60 229 0 c126 0 236 -3 245 -6z"/>
<path d="M7413 2163 c2 -5 99 -189 216 -409 171 -323 216 -403 234 -405 12 -2 67 -2 121 1 l100 5 213 400 c117 220 212 403 213 408 0 4 -55 7 -122 7 l-123 0 -30 -53 -31 -52 -241 -3 -241 -2 -31 55 -31 55 -126 0 c-69 0 -123 -3 -121 -7z m663 -355 c-19 -35 -52 -96 -74 -136 l-40 -74 -45 84 c-24 46 -57 107 -71 136 l-26 52 145 0 146 0 -35 -62z"/>
</g>


</svg>
